HIERARCHY
ROOT Hips
{
	OFFSET 0.000000 0.000000 0.000000 
	CHANNELS 6 Xposition Yposition Zposition Zrotation Xrotation Yrotation
	JOINT Spine
	{
		OFFSET -0.000000 8.061080 0.000000 
		CHANNELS 3 Zrotation Xrotation Yrotation
		JOINT Spine1
		{
			OFFSET -0.000000 20.532700 0.000000 
			CHANNELS 3 Zrotation Xrotation Yrotation
			JOINT Neck
			{
				OFFSET -0.000000 22.498800 0.000000 
				CHANNELS 3 Zrotation Xrotation Yrotation
				JOINT Head
				{
					OFFSET -0.000000 15.237400 1.966120 
					CHANNELS 3 Zrotation Xrotation Yrotation
					End Site
					{
						OFFSET -0.000000 19.661222 0.000000 
					}
				}
			}
			JOINT LeftShoulder
			{
				OFFSET 3.894670 16.042299 -0.398189 
				CHANNELS 3 Zrotation Xrotation Yrotation
				JOINT LeftArm
				{
					OFFSET 19.709600 0.000000 0.000000 
					CHANNELS 3 Zrotation Xrotation Yrotation
					JOINT LeftForeArm
					{
						OFFSET 25.566900 0.000000 0.000000 
						CHANNELS 3 Zrotation Xrotation Yrotation
						JOINT LeftHand
						{
							OFFSET 25.401899 0.000000 0.000000 
							CHANNELS 3 Zrotation Xrotation Yrotation
							End Site
							{
								OFFSET 14.745918 0.000000 0.000000 
							}
						}
					}
				}
			}
			JOINT RightShoulder
			{
				OFFSET -3.930780 16.042299 -0.398189 
				CHANNELS 3 Zrotation Xrotation Yrotation
				JOINT RightArm
				{
					OFFSET -19.709600 0.000000 0.000000 
					CHANNELS 3 Zrotation Xrotation Yrotation
					JOINT RightForeArm
					{
						OFFSET -25.566900 0.000000 0.000000 
						CHANNELS 3 Zrotation Xrotation Yrotation
						JOINT RightHand
						{
							OFFSET -25.401899 0.000000 0.000000 
							CHANNELS 3 Zrotation Xrotation Yrotation
							End Site
							{
								OFFSET -14.745918 0.000000 0.000000 
							}
						}
					}
				}
			}
		}
	}
	JOINT LeftUpLeg
	{
		OFFSET 9.830590 0.000000 0.000000 
		CHANNELS 3 Zrotation Xrotation Yrotation
		JOINT LeftLeg
		{
			OFFSET -0.000000 -46.474800 0.000000 
			CHANNELS 3 Zrotation Xrotation Yrotation
			JOINT LeftFoot
			{
				OFFSET -0.000000 -30.290499 0.000000 
				CHANNELS 3 Zrotation Xrotation Yrotation
				JOINT LeftToeBase
				{
					OFFSET -0.000000 -6.389880 14.745900 
					CHANNELS 3 Zrotation Xrotation Yrotation
					End Site
					{
						OFFSET -0.000000 0.000000 3.932244 
					}
				}
			}
		}
	}
	JOINT RightUpLeg
	{
		OFFSET -9.830590 0.000000 0.000000 
		CHANNELS 3 Zrotation Xrotation Yrotation
		JOINT RightLeg
		{
			OFFSET -0.000000 -46.474800 0.000000 
			CHANNELS 3 Zrotation Xrotation Yrotation
			JOINT RightFoot
			{
				OFFSET -0.000000 -30.290499 0.000000 
				CHANNELS 3 Zrotation Xrotation Yrotation
				JOINT RightToeBase
				{
					OFFSET -0.000000 -6.389880 14.745900 
					CHANNELS 3 Zrotation Xrotation Yrotation
					End Site
					{
						OFFSET -0.000000 0.000000 3.932244 
					}
				}
			}
		}
	}
}
MOTION
Frames: 18
Frame Time: 0.010000
0.000000 83.627907 0.000000 -2.093109 9.927620 7.264075 0.553098 -15.925576 -1.925198 2.134392 6.971183 -0.803403 2.050283 1.711337 4.092564 1.744080 15.269253 4.080254 6.798446 6.668767 -7.682988 -64.727844 36.925430 -32.803421 -10.837851 -6.628321 -2.317081 3.179122 -6.735614 4.026971 -10.003860 8.798697 -8.498060 39.995319 58.952862 53.995827 4.279006 -12.825821 6.503951 -4.236392 -12.734234 -9.087668 6.916684 -6.097696 -1.698243 1.948066 -6.051813 -0.707039 -5.759615 0.065623 -8.170063 0.000000 0.000000 0.000000 -4.556770 -6.243330 -4.978634 0.406104 8.147213 -0.807672 8.502110 -10.466043 -14.816830 0.000000 0.000000 0.000000 
0.003195 83.627998 0.002739 -2.092767 9.929499 7.261016 0.653483 -15.764642 -1.987920 1.994062 6.606278 -0.813636 2.025419 1.957357 4.145605 1.789932 15.273643 4.123858 6.699881 6.866676 -7.604623 -64.632210 36.913788 -32.697475 -10.853752 -6.600970 -2.404628 3.194731 -6.714516 4.091705 -9.951006 8.981887 -8.305450 40.217934 58.877224 53.796997 4.254589 -12.776295 6.456614 -4.234827 -12.681926 -9.082885 6.914241 -6.090326 -1.693815 1.941687 -6.047670 -0.708181 -5.747150 0.039775 -8.157759 0.000000 0.000000 0.000000 -4.558792 -6.241187 -4.973239 0.398997 8.177305 -0.813529 8.502110 -10.466043 -14.816830 0.000000 0.000000 0.000000 
0.006386 83.628090 0.005493 -2.092428 9.931376 7.257967 0.677486 -15.730835 -2.003572 1.960923 6.523010 -0.816476 2.019102 2.019507 4.154724 1.804507 15.254917 4.129954 6.675764 6.905692 -7.592683 -64.641090 36.872078 -32.614857 -10.867388 -6.575668 -2.485010 3.203253 -6.694438 4.177023 -9.938090 9.026822 -8.253902 40.266392 58.857189 53.753117 4.247622 -12.767734 6.445086 -4.222417 -12.673548 -9.082090 6.912310 -6.082848 -1.746390 1.939109 -6.061959 -0.710087 -5.708509 0.046108 -8.100815 0.000000 0.000000 0.000000 -4.564616 -6.246926 -4.976676 0.386347 8.163843 -0.815816 8.502110 -10.466043 -14.816830 0.000000 0.000000 0.000000 
0.009583 83.628181 0.008240 -2.092075 9.933228 7.254917 0.682122 -15.726243 -2.006180 1.955064 6.507226 -0.816966 2.018077 2.033790 4.151934 1.810969 15.232504 4.125832 6.670919 6.905137 -7.597223 -64.676186 36.824333 -32.538628 -10.882271 -6.555910 -2.543186 3.206465 -6.681251 4.146168 -9.934691 9.037044 -8.241821 40.266766 58.853851 53.752010 4.244987 -12.769911 6.442689 -4.207092 -12.676681 -9.082244 6.910008 -6.074243 -1.695593 1.926226 -6.060602 -0.710969 -5.716599 0.022478 -8.117588 0.000000 0.000000 0.000000 -4.564130 -6.241512 -4.965673 0.403100 8.187159 -0.813453 8.502110 -10.466043 -14.816830 0.000000 0.000000 0.000000 
0.012780 83.628281 0.010971 -2.091713 9.935116 7.251862 0.682819 -15.726765 -2.005984 1.954797 6.504096 -0.816813 2.018126 2.037762 4.146576 1.815926 15.210244 4.119461 6.670004 6.896545 -7.604972 -64.719574 36.777523 -32.458542 -10.854944 -6.740036 -2.452214 3.051392 -6.872034 3.756469 -9.933098 9.040166 -8.238633 40.256718 58.854527 53.760090 4.243315 -12.774227 6.442319 -4.191175 -12.682099 -9.082613 6.907880 -6.071354 -1.702742 1.921752 -6.033975 -0.712144 -5.698781 -0.031489 -8.103712 0.000000 0.000000 0.000000 -4.559201 -6.212755 -4.960322 0.165342 8.366220 -0.908512 8.502110 -10.466043 -14.816830 0.000000 0.000000 0.000000 
0.015984 83.628372 0.013714 -2.091332 9.936898 7.248812 0.682879 -15.727938 -2.005216 1.955431 6.502823 -0.816600 2.018466 2.040118 4.140755 1.820542 15.188160 4.112680 6.669772 6.886992 -7.613098 -64.757675 36.728004 -32.391178 -10.909488 -6.506304 -2.686236 3.219507 -6.642222 4.259301 -9.931716 9.042340 -8.237137 40.244423 58.855915 53.770164 4.241903 -12.778890 6.442299 -4.175198 -12.687915 -9.083040 6.905974 -6.063385 -1.760104 1.919609 -6.049026 -0.714093 -5.657934 -0.024940 -8.043590 0.000000 0.000000 0.000000 -4.572538 -6.245853 -4.952577 0.383634 8.164220 -0.816702 8.502110 -10.466043 -14.816830 0.000000 0.000000 0.000000 
0.019180 83.628471 0.016438 -2.090990 9.938764 7.245777 0.683114 -15.729237 -2.004520 1.955884 6.501863 -0.816334 2.018664 2.042064 4.134999 1.825376 15.166245 4.105906 6.669737 6.877423 -7.620763 -64.797295 36.679966 -32.318905 -10.919673 -6.508420 -2.743643 3.206271 -6.651962 4.207024 -9.930479 9.044233 -8.235787 40.232620 58.857258 53.780029 4.240479 -12.783310 6.442241 -4.159083 -12.693486 -9.083416 6.903568 -6.067461 -1.697254 1.905566 -6.046607 -0.714843 -5.675582 -0.013435 -8.066446 0.000000 0.000000 0.000000 -4.572187 -6.242558 -4.956263 0.411492 8.191851 -0.811422 8.502110 -10.466043 -14.816830 0.000000 0.000000 0.000000 
0.022388 83.628563 0.019161 -2.090596 9.940562 7.242722 0.683265 -15.730460 -2.003774 1.956455 6.500848 -0.816148 2.018874 2.044106 4.129264 1.830065 15.144491 4.099175 6.669527 6.867703 -7.628678 -64.838043 36.632881 -32.246731 -10.939005 -6.452301 -2.822733 3.236195 -6.599068 4.338108 -9.929324 9.046213 -8.234310 40.220951 58.858582 53.789803 4.239088 -12.787690 6.442176 -4.143010 -12.699029 -9.083788 6.901553 -6.060581 -1.744022 1.902603 -6.060018 -0.716663 -5.640091 -0.006577 -8.013947 0.000000 0.000000 0.000000 -4.577865 -6.247531 -4.957521 0.388970 8.166986 -0.815384 8.502110 -10.466043 -14.816830 0.000000 0.000000 0.000000 
0.025592 83.628662 0.021873 -2.090234 9.942369 7.239690 0.683446 -15.731659 -2.003092 1.957054 6.499892 -0.815911 2.018979 2.046129 4.123551 1.834911 15.122726 4.092420 6.669375 6.858370 -7.636238 -64.876640 36.585461 -32.175816 -10.948404 -6.458121 -2.878492 3.220376 -6.612611 4.281716 -9.928194 9.048042 -8.232916 40.209362 58.860020 53.799511 4.237688 -12.791981 6.442068 -4.126875 -12.704484 -9.084091 6.899189 -6.062884 -1.698914 1.890496 -6.059985 -0.717556 -5.649340 0.003953 -8.024940 0.000000 0.000000 0.000000 -4.577399 -6.242501 -4.946156 0.415747 8.196267 -0.810641 8.502110 -10.466043 -14.816830 0.000000 0.000000 0.000000 
0.028804 83.628761 0.024555 -2.089839 9.944209 7.236648 0.683675 -15.732865 -2.002369 1.957525 6.498927 -0.815677 2.019273 2.047973 4.117817 1.839587 15.101460 4.085700 6.669289 6.849103 -7.643764 -64.916199 36.539112 -32.105682 -10.967152 -6.403578 -2.956307 3.249028 -6.561081 4.417592 -9.926958 9.049963 -8.231568 40.197849 58.861336 53.809170 4.236314 -12.796082 6.441985 -4.110618 -12.709743 -9.084394 6.897198 -6.055780 -1.749129 1.888007 -6.073719 -0.719381 -5.612434 0.010495 -7.970479 0.000000 0.000000 0.000000 -4.583272 -6.247845 -4.947876 0.392958 8.171557 -0.814702 8.502110 -10.466043 -14.816830 0.000000 0.000000 0.000000 
0.032019 83.628868 0.027225 -2.089452 9.946065 7.233617 0.683851 -15.734092 -2.001653 1.958171 6.498019 -0.815492 2.019446 2.049970 4.112122 1.844227 15.080029 4.079030 6.669216 6.840219 -7.650975 -64.953659 36.492668 -32.036968 -10.976230 -6.408824 -3.012589 3.233812 -6.573622 4.377944 -9.925879 9.051751 -8.230178 40.186634 58.862686 53.818504 4.235002 -12.800030 6.441995 -4.094297 -12.714895 -9.084678 6.894765 -6.059747 -1.688290 1.874394 -6.071229 -0.720091 -5.629554 0.021438 -7.992691 0.000000 0.000000 0.000000 -4.583416 -6.245399 -4.940809 0.422590 8.162683 -0.804439 8.502110 -10.466043 -14.816830 0.000000 0.000000 0.000000 
0.035241 83.628975 0.029884 -2.089035 9.947844 7.230592 0.684081 -15.735240 -2.000929 1.958709 6.497176 -0.815281 2.019673 2.051789 4.106428 1.848945 15.059096 4.072332 6.669142 6.831338 -7.658242 -64.991379 36.447159 -31.968853 -10.992357 -6.375801 -3.074863 3.246892 -6.545571 4.411129 -9.924710 9.053569 -8.228873 40.175343 58.864010 53.827923 4.233744 -12.803875 6.441973 -4.077948 -12.719924 -9.084915 6.893434 -6.033466 -1.683109 1.866515 -6.076768 -0.721338 -5.614192 -0.041733 -7.984404 0.000000 0.000000 0.000000 -4.585582 -6.244224 -4.942020 0.422768 8.196020 -0.808437 8.502110 -10.466043 -14.816830 0.000000 0.000000 0.000000 
0.038471 83.629074 0.032536 -2.088586 9.949545 7.227570 0.684317 -15.736324 -2.000201 1.959277 6.496385 -0.815081 2.019854 2.053620 4.100766 1.853617 15.038316 4.065679 6.669107 6.822709 -7.665301 -65.028175 36.402184 -31.902218 -11.005507 -6.352966 -3.141625 3.252554 -6.527698 4.467409 -9.923687 9.055295 -8.227553 40.164593 58.865326 53.836929 4.232529 -12.807483 6.441968 -4.061514 -12.724742 -9.085080 6.891135 -6.032004 -1.679641 1.858965 -6.082400 -0.722573 -5.603921 -0.032284 -7.967584 0.000000 0.000000 0.000000 -4.589315 -6.246825 -4.941218 0.419027 8.166206 -0.805972 8.502110 -10.466043 -14.816830 0.000000 0.000000 0.000000 
0.041699 83.629181 0.035149 -2.088181 9.951317 7.224561 0.684635 -15.737485 -1.999496 1.959804 6.495667 -0.814851 2.020045 2.055439 4.095119 1.858328 15.017746 4.059032 6.669153 6.814504 -7.672069 -65.064240 36.357758 -31.836876 -11.022026 -6.319123 -3.200804 3.266503 -6.498667 4.494496 -9.922592 9.057021 -8.226285 40.153793 58.866711 53.846050 4.231208 -12.811000 6.441888 -4.044982 -12.729450 -9.085268 6.888941 -6.029348 -1.688709 1.852731 -6.089731 -0.723914 -5.587675 -0.023817 -7.942397 0.000000 0.000000 0.000000 -4.591148 -6.245050 -4.937222 0.422191 8.193557 -0.808316 8.502110 -10.466043 -14.816830 0.000000 0.000000 0.000000 
0.044939 83.629295 0.037739 -2.087739 9.953020 7.221561 0.684911 -15.738503 -1.998798 1.960405 6.494921 -0.814639 2.020274 2.057217 4.089492 1.862896 14.997527 4.052444 6.669195 6.806419 -7.678727 -65.099541 36.314018 -31.772947 -11.034004 -6.299879 -3.266142 3.269665 -6.484191 4.556030 -9.921556 9.058695 -8.225021 40.143169 58.868057 53.854904 4.230022 -12.814304 6.441933 -4.028359 -12.733977 -9.085350 6.886600 -6.029710 -1.668655 1.843652 -6.092704 -0.724944 -5.585827 -0.013789 -7.937551 0.000000 0.000000 0.000000 -4.594918 -6.248477 -4.941647 0.425095 8.164862 -0.803927 8.502110 -10.466043 -14.816830 0.000000 0.000000 0.000000 
0.048184 83.629410 0.040310 -2.087286 9.954737 7.218564 0.685225 -15.739552 -1.998091 1.960993 6.494287 -0.814423 2.020441 2.058844 4.083927 1.867552 14.977749 4.045850 6.669261 6.798618 -7.685201 -65.134140 36.270943 -31.710005 -11.051608 -6.261960 -3.322060 3.286998 -6.450961 4.574099 -9.920579 9.060334 -8.223780 40.132862 58.869423 53.863613 4.228765 -12.817437 6.441897 -4.011674 -12.738334 -9.085443 6.884339 -6.027145 -1.677173 1.837645 -6.099678 -0.726228 -5.570280 -0.005558 -7.913418 0.000000 0.000000 0.000000 -4.596966 -6.245749 -4.925749 0.425128 8.193212 -0.807364 8.502110 -10.466043 -14.816830 0.000000 0.000000 0.000000 
0.051443 83.629532 0.042843 -2.086794 9.956429 7.215569 0.685581 -15.740566 -1.997312 1.961516 6.493726 -0.814272 2.020685 2.060414 4.078369 1.872099 14.958344 4.039332 6.669306 6.791108 -7.691463 -65.168327 36.228996 -31.648964 -11.069752 -6.207297 -3.392441 3.316408 -6.398630 4.706986 -9.919528 9.061910 -8.222567 40.122871 58.870632 53.871979 4.227676 -12.820293 6.441949 -3.994947 -12.742434 -9.085454 6.882238 -6.019397 -1.735623 1.836854 -6.113778 -0.727978 -5.530666 -0.000208 -7.855338 0.000000 0.000000 0.000000 -4.602933 -6.250578 -4.923760 0.399725 8.168661 -0.812253 8.502110 -10.466043 -14.816830 0.000000 0.000000 0.000000 
0.054706 83.629662 0.045345 -2.086316 9.958123 7.212589 0.685873 -15.741539 -1.996646 1.962237 6.493160 -0.814053 2.020795 2.062162 4.072875 1.876650 14.938943 4.032854 6.669458 6.783952 -7.697463 -65.200592 36.187218 -31.589153 -11.080945 -6.204243 -3.436605 3.308531 -6.402192 4.648192 -9.918737 9.063425 -8.221347 40.113365 58.871834 53.879990 4.226729 -12.822904 6.442032 -3.978147 -12.746303 -9.085418 6.879691 -6.023527 -1.680402 1.824576 -6.111224 -0.728586 -5.546525 0.011081 -7.875650 0.000000 0.000000 0.000000 -4.602554 -6.246849 -4.919468 0.433471 8.188151 -0.804163 8.502110 -10.466043 -14.816830 0.000000 0.000000 0.000000 
